<?xml version="1.0" encoding="UTF-8" standalone="no"?>
<svg
   xmlns:dc="http://purl.org/dc/elements/1.1/"
   xmlns:cc="http://creativecommons.org/ns#"
   xmlns:rdf="http://www.w3.org/1999/02/22-rdf-syntax-ns#"
   xmlns:svg="http://www.w3.org/2000/svg"
   xmlns="http://www.w3.org/2000/svg"
   xmlns:sodipodi="http://sodipodi.sourceforge.net/DTD/sodipodi-0.dtd"
   xmlns:inkscape="http://www.inkscape.org/namespaces/inkscape"
   version="1.1"
   id="Ebene_1"
   x="0px"
   y="0px"
   viewBox="0 0 206.26047 106.99679"
   xml:space="preserve"
   sodipodi:docname="tu_logo_web.svg"
   inkscape:version="1.0.1 (3bc2e813f5, 2020-09-07)"
   width="206.26047"
   height="106.99679"><metadata
   id="metadata19"><rdf:RDF><cc:Work
       rdf:about=""><dc:format>image/svg+xml</dc:format><dc:type
         rdf:resource="http://purl.org/dc/dcmitype/StillImage" /><dc:title></dc:title></cc:Work></rdf:RDF></metadata><defs
   id="defs17" /><sodipodi:namedview
   pagecolor="#ffffff"
   bordercolor="#666666"
   borderopacity="1"
   objecttolerance="10"
   gridtolerance="10"
   guidetolerance="10"
   inkscape:pageopacity="0"
   inkscape:pageshadow="2"
   inkscape:window-width="1642"
   inkscape:window-height="948"
   id="namedview15"
   showgrid="false"
   inkscape:zoom="2.594"
   inkscape:cx="-59.148068"
   inkscape:cy="29.516153"
   inkscape:window-x="162"
   inkscape:window-y="54"
   inkscape:window-maximized="0"
   inkscape:current-layer="Ebene_1"
   inkscape:document-rotation="0"
   fit-margin-top="0"
   fit-margin-left="0"
   fit-margin-right="0"
   fit-margin-bottom="0" />
<style
   type="text/css"
   id="style2">
	.st0{fill:#F6F6F6;}
	.st1{fill:#1D1D1B;}
	.st2{fill:none;stroke:#1D1D1B;stroke-width:2.920000e-02;stroke-miterlimit:3.8637;}
</style>

<g
   id="g12"
   transform="translate(-20.639531,-38.675503)">
	<path
   class="st1"
   d="m 74.5,113.9 c -0.9,-0.4 -2.4,-0.8 -4,-1.2 0.1,0.9 0.2,1.7 0.3,2.4 1.3,-0.4 2.5,-0.8 3.7,-1.2 z m -4,-2 c 2,0.5 4.1,1.1 4.9,1.6 0.7,-0.3 1.4,-0.6 2.1,-0.9 -1.2,-0.7 -4.2,-1.6 -6.9,-2.4 -0.1,0.6 -0.1,1.2 -0.1,1.7 z m 5.1,2.4 c -0.1,0 -0.1,0 0,0 -2.3,0.9 -4.5,1.5 -6.7,2 0,0 -0.1,0 -0.1,0 -2,0.4 -4,0.7 -6,0.8 0,0 -0.1,0 -0.1,0 -6.6,0.4 -12.8,-0.9 -17.5,-3 L 45,114 c 0,0 -0.1,0 -0.1,-0.1 -7.9,-3.7 -11.5,-10.2 -3.7,-15.4 -0.8,-1.3 -1.8,-2.6 -2.9,-3.9 -0.3,-0.4 -0.7,-0.9 -1,-1.3 -0.6,1.6 -0.7,2.7 0.3,4.1 0.1,0.2 0.1,0.3 0,0.5 l -5.5,6.6 c -0.1,0.2 -0.4,0.2 -0.5,0 -27.6,-30.3 3.9,-76.2 41.9,-63 0.2,0.1 0.3,0.3 0.2,0.5 l -6,9.9 c -0.1,0.1 -0.2,0.2 -0.4,0.2 -1.9,-0.3 -3,-0.2 -3.8,0.5 1.7,0.3 3.5,0.7 5.3,1.4 1.6,-1.8 3.4,-3.5 5.2,-5 0,0 0.1,0 0.1,-0.1 0.1,-0.1 0.2,-0.1 0.3,0 0.1,0 0.2,0.1 0.2,0.2 0,0 0,0.1 0,0.1 L 78,59.4 c 0,0.1 0,0.2 0,0.3 0,0.1 -0.1,0.2 -0.2,0.2 -0.1,0.1 -0.2,0.1 -0.3,0.2 0.7,2.1 5.6,16.9 7.1,20.9 0.5,1.2 1.5,3.5 1.5,4.8 0,1.3 -0.9,2 -2.8,2.1 -1,0.9 -1.1,1.3 -0.6,1.9 1,1.4 0.5,2 -0.7,2.9 1.1,0.9 0.9,2.5 0.3,2.5 -0.8,0 -1.1,0.3 -1.6,0.9 3.5,3.4 0.6,6.4 -4.1,7.4 -1.5,0.3 -3.2,0.5 -5,0.4 0,0 0,0 0,0.1 -0.6,2 -1,3.9 -1.1,5.6 3.1,0.9 6.8,2 7.8,2.8 0,0 0.1,0.1 0.1,0.1 0.1,0.1 0.1,0.2 0.1,0.3 0,0.1 -0.1,0.2 -0.2,0.2 0,0 -0.1,0 -0.1,0.1 -0.8,0.4 -1.7,0.8 -2.6,1.2 z M 42.9,100.7 c 0,0 0,0.1 0,0.1 0.2,0.9 0.3,1.8 0.3,2.8 2.2,-1.5 1.6,-4 1,-5.2 -0.6,0.4 -1.1,0.7 -1.7,1.1 0.1,0.4 0.2,0.8 0.4,1.2 z m -0.6,0.7 c -1.6,1 -2.3,2.1 -2.4,3.3 1,-0.1 1.9,-0.4 2.5,-0.7 0.1,-0.9 0,-1.8 -0.1,-2.6 z m -2.5,4 c 0,0.5 0.2,0.9 0.4,1.4 5,-0.1 8.7,-5 6,-9.9 -0.5,0.4 -1,0.8 -1.5,1.1 1,1.9 1.9,6.7 -4.9,7.4 z m 0.9,2.1 c 0.4,0.6 0.9,1.1 1.5,1.6 7.3,-2.1 8.8,-8.2 5.9,-13.7 -0.4,0.4 -0.8,0.7 -1.3,1.1 3.1,5.3 -0.9,10.6 -6.1,11 z m 2.2,2.1 c 0.7,0.4 1.5,0.8 2.3,1.1 9,-4.5 6.8,-13.8 4.8,-17 -0.4,0.4 -0.9,0.8 -1.3,1.2 3,5.8 1.6,12.3 -5.8,14.7 z m 28,-36.4 c 3.1,-1.2 7,-1.8 10,-0.9 -1.3,-4 -2.7,-8.1 -3.5,-10.5 0,4 -1.9,7.8 -5.8,9.4 -0.2,0.7 -0.4,1.4 -0.7,2 z m -1.1,0.6 c 0,0 0,-0.1 0.1,-0.1 0.5,-0.8 0.9,-1.7 1.1,-2.7 0,0 0,-0.1 0,-0.1 0.2,-0.8 0.2,-1.7 0.2,-2.6 0,0 0,-0.1 0,-0.1 0,-0.6 -0.1,-1.3 -0.3,-2 -0.5,0.5 -0.9,1 -1.3,1.6 0.2,2.3 -0.3,4.8 -2.8,7 0.1,0.7 0.1,1.4 0,2.1 1.3,-1 2.3,-2 3,-3.1 z M 51.4,95 c 0.2,-0.8 0.6,-1.4 1.2,-2 -0.3,-0.5 -0.4,-1.1 -0.5,-1.6 -0.5,0.6 -1,1.1 -1.6,1.7 0.3,0.6 0.6,1.2 0.9,1.9 z m 1.7,-2.4 c 0.4,-0.3 0.9,-0.5 1.4,-0.7 -0.3,-0.7 -0.5,-1.6 -0.6,-2.6 -0.4,0.5 -0.9,1 -1.3,1.5 0.1,0.6 0.3,1.2 0.5,1.8 z m -17,2.7 c 0,-0.8 0.3,-1.7 0.7,-2.7 -1.8,-2.6 -3.4,-6 -3.9,-11 0,0 0,-0.1 0,-0.1 0,-0.5 -0.1,-1 -0.1,-1.5 0,0 0,-0.1 0,-0.1 0,-0.2 0,-0.3 0,-0.5 -0.1,-1.6 0,-3.3 0.3,-4.9 0,0 0,-0.1 0,-0.1 0.1,-0.5 0.2,-1 0.3,-1.5 0,0 0,-0.1 0,-0.1 1.1,-4.6 3.4,-9 6.7,-12.6 0,0 0.1,-0.1 0.1,-0.1 1,-1 2.1,-2 3.2,-2.9 v 0 c 1.8,-1.4 3.8,-2.5 6,-3.3 0,0 0,0 0.1,0 2.7,-1 5.7,-1.6 8.9,-1.6 0.2,0 0.4,0 0.6,0 1.2,0 2.4,0.1 3.7,0.3 0.6,-0.7 1.2,-1.1 2.1,-1.2 -0.1,0 -0.1,0 -0.2,-0.1 0,0 0,0 0,0 -1.6,-0.4 -3.1,-0.7 -4.7,-0.8 v 0 C 51.7,50 43.7,53.6 38.3,59.6 v 0 c -1.1,1.2 -2.1,2.5 -3,3.9 0,0 0,0 0,0.1 -0.8,1.3 -1.5,2.7 -2.1,4.1 0,0 0,0 0,0 -0.6,1.4 -1.1,2.9 -1.4,4.4 -1.4,5.9 -0.9,12.4 2.3,19 v 0 c 0.3,1.4 1.1,2.8 2,4.2 z m 1.3,-3 c 0,0 0.1,0.1 0.1,0.1 0.3,0.4 0.5,0.7 0.8,1.1 1.4,-1.1 2.7,-2.2 4,-3.4 -0.6,-0.3 -1.2,-0.6 -1.7,-0.9 -1,1 -1.6,1.4 -3.3,1.4 -0.3,0 -0.4,-0.2 -0.3,-0.5 0.3,-0.9 0,-3.2 0,-4.4 -0.1,-0.2 -0.3,-0.5 -0.4,-0.7 -0.4,0.1 -1,0.1 -1.7,0.1 -0.4,0 -0.5,-0.3 -0.2,-0.6 1.1,-1 0.9,-2.4 1.2,-4.3 -0.6,0.3 -1.8,1.1 -2.2,1.4 0.4,4.9 2,8.2 3.7,10.7 z m 3.5,4.6 C 55.5,87.1 61.3,69.4 74.4,58.2 l -1.9,-0.4 c -0.4,-0.1 -0.4,-0.1 -0.3,-0.5 l 0.3,-2.7 C 60.3,66.9 53.6,87.1 40,95.7 c 0.3,0.4 0.6,0.8 0.9,1.2 z M 74.8,52.3 c -0.6,0.5 -1.1,1 -1.6,1.5 l -0.4,3.4 2.2,0.5 c 0.4,-0.3 0.8,-0.7 1.3,-1 l -0.3,-1 c -0.6,0.2 -1.3,-0.1 -1.6,-0.8 -0.2,-0.6 0.1,-1.3 0.8,-1.6 z m -31.7,38 c -1.4,1.3 -2.8,2.6 -4.4,3.8 l 0.1,0.1 c 0.2,0.3 0.5,0.6 0.7,0.9 7.2,-4.5 12.4,-12.3 17.6,-20.5 4.5,-7.2 9.3,-15.2 15.4,-21.2 0,0 0.1,-0.1 0.1,-0.1 0.6,-0.6 1.3,-1.2 1.9,-1.8 L 74,50 c -2.4,2 -4.5,4.2 -6.6,6.6 0,0 0,0.1 -0.1,0.1 -3.9,4.7 -7.2,10 -10.3,14.9 -1.7,2.6 -3.3,5.2 -5.1,7.8 0,0 0,0.1 -0.1,0.1 -0.7,1 -1.5,2 -2.2,3.1 0,0 0,0.1 -0.1,0.1 -0.5,0.7 -1.1,1.4 -1.7,2.1 0,0 0,0.1 -0.1,0.1 -0.8,1 -1.7,2 -2.6,3 0,0 0,0.1 -0.1,0.1 -0.4,0.7 -1.2,1.5 -1.9,2.3 z m -0.3,-0.7 c 0.5,-0.5 1.1,-1.1 1.6,-1.6 -3.3,-0.5 -5.2,-2.1 -5.9,-4.1 -0.5,0.4 -0.8,0.7 -1.2,0.9 0.1,0.2 0.2,0.4 0.3,0.6 0,0 0.1,0.1 0.1,0.2 1.3,2.1 2.8,2.8 5.1,4 z m 2.1,-2.3 c 0.5,-0.6 1.1,-1.2 1.6,-1.8 -6.1,1.7 -10,-7.9 0.5,-11.8 -0.8,-0.3 -1.5,-0.5 -2.2,-0.9 -6.8,3 -9.1,13.3 0.1,14.5 z m 2.6,-3 c 0.5,-0.7 1.1,-1.3 1.6,-2 0.2,-1.8 -0.2,-3.8 -2.5,-4.8 -0.6,0.3 -1.2,0.7 -1.7,1.2 3.3,0.5 3.2,4.7 0.2,4.7 -2.5,0 -2.4,-3.1 -1.3,-4.6 0,0 0,-0.1 0.1,-0.1 v 0 c 0.5,-0.7 1.3,-1.3 2.4,-1.9 0,0 0.1,0 0.1,-0.1 0.8,-0.4 1.8,-0.7 2.9,-1 0,0 0.1,0 0.1,0 0.7,-0.2 1.4,-0.3 2.3,-0.4 C 51.1,75 50.3,74.8 49.6,74.5 49.1,74.3 48.6,74.2 48,74 36.9,77.6 41.4,87.5 47.5,84.3 Z m 2.3,-3.1 c 0.5,-0.7 1,-1.4 1.5,-2.1 -0.1,-0.7 -0.9,-2 -1.8,-2.7 -0.7,0.2 -1.4,0.4 -2.1,0.7 1.8,1 2.4,2.6 2.4,4.1 z m 2,-2.8 c 0.5,-0.8 1,-1.5 1.5,-2.3 -0.1,-0.1 -0.3,-0.2 -0.4,-0.3 -0.7,0.1 -1.6,0.2 -2.6,0.4 0.7,0.7 1.2,1.5 1.5,2.2 z m 1.9,-2.8 c 0.5,-0.8 1,-1.6 1.6,-2.4 -2,-0.5 -5.5,-0.2 -7.8,-0.2 0.8,0.3 1.6,0.5 2.4,0.8 1.2,0.4 2.3,0.8 3.3,1.4 0,0 0.1,0 0.1,0.1 0.1,0.1 0.3,0.2 0.4,0.3 z m 2,-3.1 c 0.4,-0.6 0.7,-1.2 1.1,-1.7 -2.2,-0.7 -5.7,-0.5 -7.9,-0.5 -2.6,0 -5.4,0.1 -7.5,-0.5 1.1,1 2.5,1.8 4,2.4 1.1,0.2 3.8,0 4.7,0 2,0 4.2,0 5.6,0.3 z m 1.5,-2.3 c 0.3,-0.5 0.6,-1 0.9,-1.5 C 55.3,67.6 50.8,68 47.9,68 44.6,68 41.2,67.8 39,66 c 0.3,1.1 0.8,2 1.4,2.8 3.2,1.4 9.4,0.7 13.1,0.8 1.4,0.1 2.7,0.2 3.7,0.6 z m 1.3,-2.1 c 0.3,-0.5 0.6,-1 1,-1.5 -1.1,-0.4 -2.2,-0.6 -3.3,-0.8 0,0 -0.1,0 -0.1,0 -2.8,-0.4 -5.6,-0.3 -8.6,-0.3 -1.9,0 -3.6,-0.1 -5.2,-0.5 0,0 -0.1,0 -0.1,0 -1.3,-0.4 -2.4,-1.1 -3.3,-2.4 -0.1,0.1 -0.2,0.2 -0.3,0.4 0,0.6 0.1,1.1 0.2,1.7 1.8,2.4 5.3,2.7 9.2,2.7 3,-0.1 7.6,-0.5 10.5,0.7 z m 8.7,-12.2 c 0.3,-0.4 0.7,-0.8 1,-1.2 -1.9,-0.6 -3.7,-1.1 -5.5,-1.3 0,0 -0.1,0 -0.1,0 -0.8,-0.1 -1.6,-0.2 -2.4,-0.3 0.3,0.4 0.5,1.1 0.5,1.9 0.4,0.4 0.7,0.9 0.7,1.4 0.5,-0.3 1.2,-0.4 2,-0.2 0.6,-1.4 2.6,-1.7 3.8,-0.3 z m -39.6,42.5 6.5,-4.9 c -0.3,-0.6 -0.6,-1.1 -0.9,-1.7 l -5.5,3.3 c -0.4,0.2 -0.8,-0.4 -0.4,-0.6 l 5.5,-3.4 c -0.2,-0.5 -0.4,-0.9 -0.6,-1.4 l -7.5,3.5 c 0.9,1.8 1.9,3.5 2.9,5.2 z M 34.5,94.1 28,99 c 1.1,1.6 2.3,3.2 3.7,4.8 l 5.1,-6.1 c -0.3,-0.5 -0.7,-0.9 -1,-1.4 l -4.9,4.8 c -0.3,0.3 -0.8,-0.2 -0.5,-0.5 l 5,-4.9 c -0.3,-0.5 -0.6,-1.1 -0.9,-1.6 z m -9.9,-1.5 7.5,-3.5 c -0.2,-0.5 -0.4,-1 -0.5,-1.5 l -6.1,1.8 C 25,89.5 24.8,88.8 25.3,88.7 l 6.1,-1.8 c -0.2,-0.7 -0.4,-1.3 -0.5,-2 l -8.1,1.7 c 0.3,2.1 1,4 1.8,6 z M 22.5,86 30.6,84.3 c -0.1,-0.6 -0.2,-1.2 -0.3,-1.7 l -6.5,0.6 c -0.5,0 -0.5,-0.7 -0.1,-0.7 l 6.5,-0.6 C 30.1,81.3 30.1,80.6 30,80 l -8.3,-0.2 c 0.1,2 0.4,4.1 0.8,6.2 z m -0.8,-7 8.3,0.2 c 0,-0.6 0,-1.1 0,-1.7 L 23.6,76.8 C 23.1,76.7 23.2,76 23.7,76.1 l 6.4,0.7 c 0,-0.7 0.1,-1.4 0.2,-2.1 L 22.2,73 c -0.3,2 -0.5,4 -0.5,6 z m 0.6,-6.7 8.1,1.7 c 0.1,-0.6 0.2,-1.1 0.3,-1.6 l -6.2,-2 C 24,70.3 24.3,69.6 24.7,69.7 l 6.1,1.9 c 0.1,-0.5 0.3,-1.1 0.4,-1.6 l -7.5,-3.7 c -0.5,1.9 -1.1,3.9 -1.4,6 z m 1.8,-6.7 7.4,3.7 c 0.2,-0.5 0.4,-1.1 0.6,-1.6 l -5.7,-3.5 c -0.4,-0.2 0,-0.9 0.4,-0.6 l 5.6,3.4 c 0.2,-0.6 0.5,-1.1 0.8,-1.7 l -6.7,-5.1 c -0.9,1.8 -1.7,3.6 -2.4,5.4 z m 2.7,-5.9 6.7,5.1 c 0.2,-0.4 0.5,-0.9 0.8,-1.3 l -4.9,-4.7 c -0.3,-0.3 0.2,-0.8 0.5,-0.5 l 4.8,4.6 c 0.4,-0.6 0.7,-1.1 1.1,-1.6 l -5.6,-6.5 c -1.2,1.5 -2.4,3.1 -3.4,4.9 z m 3.8,-5.5 5.6,6.5 c 0.4,-0.4 0.7,-0.9 1.1,-1.3 l -4.2,-5.7 c -0.3,-0.4 0.3,-0.8 0.6,-0.4 l 4.1,5.6 c 0.4,-0.4 0.8,-0.9 1.3,-1.3 L 34.7,50 c -1.5,1.2 -2.8,2.6 -4.1,4.2 z m 4.6,-4.8 4.4,7.6 c 0.4,-0.3 0.8,-0.7 1.2,-1 l -2.9,-6.7 c -0.2,-0.4 0.5,-0.7 0.7,-0.3 l 2.8,6.5 c 0.5,-0.4 1,-0.8 1.6,-1.1 l -2.9,-8.7 c -1.7,1.2 -3.4,2.4 -4.9,3.7 z m 5.5,-4 2.9,8.7 c 0.5,-0.3 0.9,-0.6 1.4,-0.8 L 43.3,46 c -0.1,-0.5 0.6,-0.6 0.7,-0.2 l 1.7,7 c 0.5,-0.3 1,-0.5 1.5,-0.8 l -1.3,-9.4 c -1.8,0.9 -3.5,1.8 -5.2,2.8 z m 5.9,-3 1.3,9.4 c 0.5,-0.2 1.1,-0.4 1.7,-0.6 l -0.3,-7.8 c 0,-0.5 0.7,-0.5 0.7,0 l 0.2,7.6 c 0.5,-0.2 1.1,-0.3 1.7,-0.5 l 0.7,-9.8 c -2.1,0.4 -4.1,1 -6,1.7 z m 6.7,-1.8 -0.7,9.8 c 0.6,-0.1 1.3,-0.3 1.9,-0.3 l 1.2,-7.7 c 0.1,-0.5 0.8,-0.4 0.7,0.1 L 55.3,50 c 0.5,-0.1 1,-0.1 1.5,-0.1 l 2.5,-9.8 c -2,-0.1 -4,0.1 -6,0.5 z m 6.8,-0.6 -2.5,9.8 c 0.6,0 1.3,0 1.9,0 l 2.4,-7.7 c 0.1,-0.5 0.8,-0.2 0.7,0.2 l -2.4,7.5 c 0.6,0.1 1.2,0.1 1.8,0.2 l 4.1,-9.6 c -2,-0.3 -4,-0.4 -6,-0.4 z m 6.7,0.6 -4.1,9.6 c 0.5,0.1 1.1,0.2 1.6,0.4 l 4,-7.8 c 0.2,-0.4 0.9,-0.1 0.6,0.3 l -4,7.6 c 0.7,0.2 1.4,0.4 2.1,0.7 l 5.6,-9.3 C 70.7,41.4 68.8,40.9 66.8,40.6 Z M 53.9,62.1 c 0,0.1 0,0.1 -0.1,0.2 0,0.1 -0.1,0.1 -0.2,0.1 0,0 0,0 -0.1,0 -0.6,0.1 -1.2,0.1 -1.8,0 -0.1,0.1 -0.1,0.1 -0.2,0.2 0.1,0.7 0.4,1.5 1.2,2.3 0.5,0 1.1,0 1.6,0.1 l 1.6,-6.5 c -1.8,-0.5 -2.2,-3.6 0.1,-4 0,-0.5 0.2,-1 0.5,-1.3 -1.2,0.1 -2.4,0.2 -3.6,0.5 l 0.3,3.7 c 0,0 0,0.1 0,0.1 v 0.4 c 0,0.5 -0.7,0.5 -0.7,0.1 v -0.3 l -1.5,-1 c -0.4,0.3 -0.6,0.8 -0.6,1.3 0,1 0.8,1.8 1.8,1.8 0.2,0 0.3,0 0.5,-0.1 v -0.1 c 0,-0.5 0.7,-0.5 0.7,-0.1 v 0.4 c 0,0 0,0.1 0,0.1 l 0.5,2.1 c 0,-0.1 0,0 0,0 z m -2.6,-6.6 0.2,0.1 c 0,0 0,0 0.1,0 l 1.2,0.8 -0.3,-2.9 c -0.9,0.2 -1.8,0.5 -2.7,0.8 -1.9,2 -1.6,4.2 -0.5,5.6 0,0 0.1,0.1 0.1,0.1 0.9,1.1 2.4,1.7 3.8,1.5 L 53,60.2 c -0.2,0 -0.4,0.1 -0.6,0.1 -1.4,0 -2.5,-1.1 -2.5,-2.5 0,-0.7 0.3,-1.3 0.8,-1.8 -0.1,-0.3 0.2,-0.7 0.6,-0.5 z m -0.4,6.6 c -0.8,-0.3 -1.5,-0.8 -2,-1.3 -2.5,0.6 -4.7,-1.2 -5.5,-2.8 -0.9,0.7 -1.7,1.4 -2.4,2.1 l 1.5,0.4 c 0,0 0,0 0.1,0 l 0.4,0.1 c 0.1,0 0.1,0 0.2,0.1 0.1,0 0.1,0.1 0.1,0.1 1.7,2.1 6,2.1 7.6,1.3 z m -2.5,-2 c -1,-1.4 -1.2,-3.2 0,-5.1 -1.6,0.7 -3.1,1.6 -4.4,2.6 0.6,1.3 2.4,2.8 4.4,2.5 z m -5.7,1.2 v 0 c -0.3,0.7 -0.3,2.2 -0.1,3 1.4,0.4 3,0.5 4.8,0.5 1.5,0 3,0 4.4,0 -0.5,-0.6 -0.8,-1.3 -0.9,-1.9 -2.1,0.8 -6.3,0.5 -8.2,-1.6 z m 1.2,11.1 c -0.5,-0.2 -0.9,-0.5 -1.3,-0.8 -0.5,0.4 -1,0.8 -1.5,1.1 0,0 0,0 -0.1,0 -0.9,0.8 -1.7,1.5 -2.3,2.2 0,0 0,0 -0.1,0.1 -0.3,0.3 -0.5,0.6 -0.7,1 0,0 0,0.1 -0.1,0.1 -0.8,1.3 -1.2,2.4 -1.4,3.5 -0.3,1.5 -0.1,3.5 -1,4.8 1.4,-0.1 1.8,-0.5 2.6,-1.3 -0.6,-3.8 2.1,-8.7 5.9,-10.7 z m 0.5,6.9 c -0.1,0.1 -0.2,0.3 -0.3,0.4 -0.8,1.6 0.1,2.9 1,2.9 2.3,0 2.1,-3.1 -0.7,-3.3 z m -4.1,-6.8 c -1.2,-1 -2.6,-2 -3.3,-3.5 -0.1,0.8 -0.1,1.6 0.1,2.3 v 0 c 0.3,1.2 0.9,2.2 1.4,2.9 0.5,-0.5 1.1,-1.1 1.8,-1.7 z m -2.6,14.4 c 0.1,1 0.2,2 0,3 1.1,-0.1 1.6,-0.4 2.2,-1 -0.8,-0.6 -1.5,-1.2 -2.2,-2 z M 37.3,73.6 36,74.3 36.7,75.8 C 37,75.7 37.2,75.6 37.5,75.5 37.7,75.3 37.9,75 38.1,74.7 37.8,74.4 37.6,74 37.3,73.6 Z M 33.4,80 c 0,0.3 0,0.6 0.1,0.9 0.7,-0.5 1.8,-1.2 2.4,-1.4 0.2,-0.9 0.5,-1.8 1,-2.8 -0.1,0 -0.1,0.1 -0.2,0.1 0,0 0,0 0,0 -1.6,0.8 -3,2.6 -3.3,3.2 z m 0.1,-4.6 c -0.1,1.1 -0.2,2.2 -0.2,3.3 0.3,-0.5 0.8,-1 1.3,-1.5 z m 0.4,-2.3 c -0.1,0.4 -0.2,0.9 -0.2,1.3 l 1.5,2.5 c 0.3,-0.2 0.5,-0.4 0.8,-0.6 -1.2,-2.6 -1.5,-2 1,-3.2 -0.2,-0.4 -0.3,-0.8 -0.5,-1.2 -0.6,0.1 -1.7,0.5 -2.6,1.2 z m 4,-9.2 c -1.7,2.5 -3,5.3 -3.7,8.2 0.8,-0.5 1.6,-0.8 2.2,-1 -0.2,-1.1 -0.2,-2.2 0.3,-3.5 0.2,-0.4 0.6,-0.4 0.7,0.1 0.3,1.8 2.1,3.2 3.5,4.3 0.3,-0.3 0.7,-0.6 1.1,-0.8 -2.1,-1.5 -3.7,-3.7 -4.1,-7.3 z m 2.5,-3.2 c -0.4,0.4 -0.8,0.8 -1.1,1.3 0.7,1 1.6,1.6 2.6,2.1 C 41.8,63.2 41.8,62 42,61.2 Z m 20.1,-2.3 c -0.3,0.2 -0.7,0.3 -1.2,0.3 -0.1,1 -0.3,2.1 -0.1,3.1 l 1.9,-2 c -0.4,-0.5 -0.6,-1 -0.6,-1.4 z m -2.2,2.1 c -0.5,-0.1 -1.1,-0.3 -1.3,-0.9 -0.1,-0.2 0.7,-0.1 0.8,-0.1 0.2,0 0.4,0 0.6,-0.1 0,-0.4 0.1,-0.8 0.2,-1.2 0,0 0,0 0,0 0,-0.1 0,-0.3 0.1,-0.4 0.1,-0.5 0.8,-0.4 0.7,0.1 2.1,-0.2 1.7,-3.2 -0.5,-2.7 -0.5,0.1 -0.6,-0.6 -0.1,-0.7 0.5,-0.1 0.9,-0.1 1.3,0 -0.2,-3 -4.9,-1.2 -2.2,1.1 0.4,0.3 -0.1,0.9 -0.5,0.5 -0.5,-0.4 -0.8,-0.8 -0.9,-1.2 -1.6,0.3 -1.2,2.3 -0.1,2.6 v -0.1 c 0.1,-0.5 0.8,-0.3 0.7,0.2 L 57,58 c 0,0 0,0 0,0 l -1.8,7 c 0.3,0 0.6,0.1 0.9,0.1 l 2.5,-2.7 c -0.2,-0.6 -0.3,-1.2 -0.3,-1.9 z m 3.6,2.5 c -0.4,-0.5 -0.5,-1.3 -0.4,-2 0.1,-0.3 0.4,0.2 0.5,0.3 0.2,0.2 0.5,0.3 0.8,0.5 0.6,-0.9 1.2,-1.7 1.8,-2.6 0.7,-0.9 1.4,-1.9 2.2,-2.8 -1.2,-1.5 -3.3,-0.6 -2.7,1.7 0.1,0.5 -0.6,0.6 -0.7,0.2 -0.1,-0.5 -0.2,-1 -0.1,-1.4 -1.6,-0.5 -2.7,0.9 -1.7,2.3 0.3,-0.3 0.8,0.2 0.5,0.5 l -2.8,3 c 0,0 -0.1,0.1 -0.1,0.1 L 57,65.2 c 1,0.2 2,0.4 3,0.8 0.5,-1 1.2,-2 1.9,-3 z m -3.2,20 c 4,-1.6 5.2,-4.8 5,-7.3 -0.9,1.3 -1.8,2.6 -2.6,3.9 -0.8,1.1 -1.6,2.2 -2.4,3.4 z m 7.9,-9.1 c 1.7,-1.7 2.2,-3.6 2.2,-5.3 -0.9,1.2 -1.8,2.4 -2.7,3.6 0.2,0.6 0.4,1.1 0.5,1.7 z m 5.2,-6.4 c 1.8,-1.5 2.5,-3 2.5,-4.9 -1,0.9 -1.9,1.8 -2.8,2.8 0.1,0.8 0.2,1.5 0.3,2.1 z m -0.1,2.9 c 3.7,-1.7 5.2,-5.7 4.9,-9.8 -0.6,0.4 -1.2,0.9 -1.7,1.4 0.2,2.5 -0.7,4.5 -3.1,6.3 0,0.8 0,1.5 -0.1,2.1 z M 57.3,85.8 c 0,0 0,0 0,0 4.2,-0.4 7.9,-3.7 8.7,-8.2 0,0 0,-0.1 0,-0.1 0.1,-0.9 0.2,-1.8 0.1,-2.8 0,0 0,-0.1 0,-0.1 -0.1,-0.6 -0.2,-1.1 -0.4,-1.7 -0.4,0.6 -0.9,1.2 -1.3,1.9 0.6,3.2 -0.8,7.6 -6.3,9.2 -0.4,0.6 -0.9,1.2 -1.4,1.8 0.2,0 0.4,0 0.6,0 z M 41.9,98.5 c 0,0 0,0 0,0 0.1,0.2 0.2,0.3 0.2,0.4 1.4,-0.8 2.7,-1.7 4,-2.8 0,0 0,0 0.1,0 0.6,-0.5 1.2,-1 1.8,-1.5 0,0 0.1,-0.1 0.1,-0.1 0.6,-0.5 1.1,-1.1 1.7,-1.6 0,0 0,-0.1 0.1,-0.1 0.7,-0.7 1.5,-1.5 2.2,-2.3 0,0 0.1,-0.1 0.1,-0.1 0.6,-0.7 1.3,-1.5 1.9,-2.2 0,-0.1 0.1,-0.1 0.1,-0.1 0.5,-0.7 1.1,-1.4 1.6,-2.1 0,-0.1 0,0 0.1,-0.1 0.6,-0.8 1.2,-1.6 1.7,-2.4 0,0 0,-0.1 0.1,-0.1 2.1,-2.9 4.1,-5.9 6.1,-8.9 0,0 0,-0.1 0.1,-0.1 0.6,-0.8 1.1,-1.7 1.7,-2.5 0,0 0,-0.1 0.1,-0.1 1,-1.4 2,-2.7 3,-4 0.1,-0.1 0.2,-0.2 0.3,-0.4 0,0 0,-0.1 0.1,-0.1 0.6,-0.7 1.2,-1.5 1.8,-2.2 0,0 0,-0.1 0.1,-0.1 1.1,-1.2 2.3,-2.4 3.4,-3.5 0,0 0.1,-0.1 0.1,-0.1 0.8,-0.7 1.5,-1.3 2.3,-1.8 0,0 0.1,-0.1 0.1,-0.1 L 77,59.4 c 0,0 0,0 0.1,0 0.1,-0.1 0.2,-0.2 0.3,-0.2 l -0.7,-2 c -0.4,0.3 -0.8,0.6 -1.1,0.9 0,0 0,0 -0.1,0.1 -13.6,11.3 -19.3,29.4 -34.2,39.3 0.2,0.3 0.4,0.6 0.6,1 z m 12.8,1.3 c 0,0 0.1,0 0,0 0.4,0.1 0.7,0.1 1,0.1 0.9,0 1.7,-0.3 2.4,-0.8 0,0 0,0 0,0 0.8,-0.7 1.3,-1.7 1.3,-2.8 0,-0.6 -0.1,-1.1 -0.3,-1.5 0,0 0,-0.1 0,-0.1 -0.6,-1.2 -1.9,-2.1 -3.3,-2.1 -0.2,0 -0.4,0 -0.5,0 h -0.1 c -0.7,0.1 -1.3,0.4 -1.8,0.8 h -0.1 c -0.8,0.7 -1.3,1.7 -1.3,2.8 0,1.7 1.1,3.2 2.7,3.6 z m -9.6,13.5 c 1.1,-0.4 2.1,-0.9 2.9,-1.4 0,0 0.1,-0.1 0.1,-0.1 0.8,-0.5 1.5,-1.1 2.2,-1.7 0,0 0,-0.1 0.1,-0.1 3.2,-3.2 4.1,-7.3 4,-9.6 -0.7,-0.2 -1.4,-0.7 -1.9,-1.2 0.4,4.1 -0.9,9.1 -7,12.1 -0.1,0.1 -0.1,0.1 -0.2,0.1 0,0 -0.1,0 -0.2,0 -1,-0.3 -2.1,-0.9 -3,-1.5 -0.1,-0.1 -0.1,-0.1 -0.2,-0.2 -0.8,-0.6 -1.5,-1.4 -2,-2.2 -0.1,-0.1 -0.1,-0.1 -0.1,-0.2 -1.2,-2.1 -1,-4.5 2.4,-6.5 -0.2,-0.5 -0.4,-1 -0.6,-1.5 -7,4.6 -4.3,10.4 3.5,14 z m 3.2,-0.8 c -0.7,0.4 -1.5,0.8 -2.3,1.2 4.1,1.7 9.4,2.8 15,2.7 -3.3,-1.3 -9.5,-3.2 -12.7,-3.9 z m 2.4,-1.8 c -0.5,0.4 -1,0.9 -1.5,1.2 4,0.9 11.1,3.2 13.6,4.3 1.5,-0.1 3.1,-0.3 4.6,-0.5 -4.3,-1.3 -12.9,-4 -16.7,-5 z M 55,100.6 c 0,2.4 -0.8,6.4 -3.8,9.6 4.4,1.1 14,4.1 17.5,5.4 0.5,-0.1 1,-0.2 1.4,-0.3 -0.6,-2.8 -0.6,-6.9 0.8,-11.4 -4,-0.3 -8.5,-1.5 -12.7,-4.1 -0.7,0.5 -1.6,0.9 -2.6,0.9 -0.1,-0.1 -0.4,-0.1 -0.6,-0.1 z m 0,-9.7 c 0.1,0.3 0.2,0.6 0.3,0.9 0.1,0 0.3,0 0.4,0 0.7,0 1.4,0.2 2,0.5 0.4,-2 -1.5,-2.8 -2.7,-1.4 z m 2.6,-3.6 c 3.2,0.8 4.3,4.8 2.3,7.2 0.2,0.5 0.3,1.1 0.3,1.7 0,1.2 -0.5,2.3 -1.2,3.1 6.2,3.8 13.2,4.5 17.8,3.5 4.8,-1 6.5,-3.6 3.5,-6.4 -0.5,-0.5 0.9,-1.8 2,-1.9 0.1,-0.7 -0.2,-1.2 -0.7,-1.5 -1.5,-0.1 -3.9,0.6 -5.5,1 -0.1,0.3 -0.6,0.4 -0.7,0 -0.2,-0.5 0.3,-1.3 0.4,-1.5 0.2,-0.5 0.8,-0.2 0.6,0.3 -0.1,0.1 -0.2,0.3 -0.2,0.5 1.6,-0.4 3.8,-1.1 5.4,-1 0.4,-0.3 1.4,-1 1.2,-1.6 -0.1,-0.1 -0.2,-0.3 -0.4,-0.6 -0.8,-1 -0.4,-1.7 0.3,-2.5 -1.2,-0.2 -2.8,0 -3.6,0.9 -0.5,0.5 -1.3,-0.9 -1.4,-1.1 -0.3,-0.8 -0.3,-1.8 0.9,-2.9 0.3,-0.3 0.8,0.2 0.5,0.5 -0.9,0.9 -1.2,1.8 -0.3,2.7 v 0 c 1.3,-1 3.1,-1.2 4.6,-0.8 v 0 0 c 2.7,-0.2 2.5,-1.3 1.8,-3.2 -0.3,-0.8 -0.7,-1.7 -1,-2.7 -0.6,-1.5 -1.7,-4.6 -2.8,-8 -3.1,-1.2 -7.5,-0.5 -10.8,1 -0.8,1.3 -2,2.5 -3.7,3.7 -0.8,4.6 -4.6,8.1 -9,8.6 z m -0.8,-0.1 0.1,-0.7 c -0.3,0 -0.5,0 -0.8,0 -0.5,0.7 -1,1.3 -1.5,1.9 0,0.6 0.1,1.1 0.2,1.6 1.5,-1.3 4.4,-0.4 3.5,2.6 0.5,0.3 0.9,0.8 1.2,1.2 1.6,-2.2 0.2,-5.8 -2.9,-5.9 -0.5,0 -0.5,-0.7 0,-0.7 0.1,0 0.2,0 0.2,0 z M 69.2,61.6 c 0,0.4 -0.3,0.7 -0.7,0.7 -0.4,0 -0.7,-0.3 -0.7,-0.7 0,-0.4 0.3,-0.7 0.7,-0.7 0.4,0.1 0.7,0.4 0.7,0.7 z m 1.9,-2.2 c 0,0.4 -0.3,0.7 -0.7,0.7 -0.4,0 -0.7,-0.3 -0.7,-0.7 0,-0.4 0.3,-0.7 0.7,-0.7 0.4,0 0.7,0.3 0.7,0.7 z M 67.4,64 c 0,0.3 -0.3,0.6 -0.6,0.6 -0.3,0 -0.6,-0.3 -0.6,-0.6 0,-0.3 0.3,-0.6 0.6,-0.6 0.3,0 0.6,0.3 0.6,0.6 z M 47,57.6 c 0,0.4 -0.3,0.7 -0.7,0.7 -0.4,0 -0.7,-0.3 -0.7,-0.7 0,-0.4 0.3,-0.7 0.7,-0.7 0.4,0 0.7,0.3 0.7,0.7 z m 8.7,39.9 c 0.7,0 1.3,-0.6 1.3,-1.3 0,-0.7 -0.6,-1.3 -1.3,-1.3 -0.7,0 -1.3,0.6 -1.3,1.3 0,0.7 0.6,1.3 1.3,1.3 z m 0,0.7 c -1.1,0 -2,-0.9 -2,-2 0,-1.1 0.9,-2 2,-2 1.1,0 2,0.9 2,2 0,1.1 -0.9,2 -2,2 z M 83.2,87.1 c 0,0 0,0 0,0 z m -10.5,-8 c -0.2,-0.6 -0.3,-1.3 -0.2,-2.1 -1.1,0.3 -2.1,0.8 -3,1.5 0.3,0.1 0.8,0.2 1.4,0.4 0.5,0.1 1.1,0.2 1.8,0.2 z m 0.5,-2.3 c -0.1,1 0,1.7 0.2,2.3 0.5,0 0.9,0 1.4,-0.1 -0.2,-0.3 -0.4,-0.8 -0.4,-1.2 0,-0.5 0,-0.9 0.2,-1.3 -0.4,0.1 -0.9,0.2 -1.4,0.3 z m 3,-1.1 c 0.5,0 1,-0.1 1.3,0 0.2,0 0.3,0.2 0.3,0.4 0,0.4 -0.6,0.7 -1,0.8 0.1,0.2 0.1,0.4 0.1,0.7 0.1,1 -0.3,1.9 -1,2.1 0,0 0,0 -0.1,0 -0.8,0.1 -1.7,0.2 -2.7,0.2 -0.1,0 -0.1,0 -0.2,0 -1.5,0 -3,-0.3 -4.2,-0.8 0,0 0,0 0,0 -0.3,0.4 -0.9,-0.1 -0.5,-0.5 0,0 0.1,-0.1 0.2,-0.2 0,0 0,0 0.1,-0.1 0.9,-0.7 3.3,-2.5 7.7,-2.6 z"
   id="path6" />
	<path
   class="st2"
   d="m 74.5,113.9 c -0.9,-0.4 -2.4,-0.8 -4,-1.2 0.1,0.9 0.2,1.7 0.3,2.4 1.3,-0.4 2.5,-0.8 3.7,-1.2 z m -4,-2 c 2,0.5 4.1,1.1 4.9,1.6 0.7,-0.3 1.4,-0.6 2.1,-0.9 -1.2,-0.7 -4.2,-1.6 -6.9,-2.4 -0.1,0.6 -0.1,1.2 -0.1,1.7 z m 5.1,2.4 c -0.1,0 -0.1,0 0,0 -2.3,0.9 -4.5,1.5 -6.7,2 0,0 -0.1,0 -0.1,0 -2,0.4 -4,0.7 -6,0.8 0,0 -0.1,0 -0.1,0 -6.6,0.4 -12.8,-0.9 -17.5,-3 L 45,114 c 0,0 -0.1,0 -0.1,-0.1 -7.9,-3.7 -11.5,-10.2 -3.7,-15.4 -0.8,-1.3 -1.8,-2.6 -2.9,-3.9 -0.3,-0.4 -0.7,-0.9 -1,-1.3 -0.6,1.6 -0.7,2.7 0.3,4.1 0.1,0.2 0.1,0.3 0,0.5 l -5.5,6.6 c -0.1,0.2 -0.4,0.2 -0.5,0 -27.6,-30.3 3.9,-76.2 41.9,-63 0.2,0.1 0.3,0.3 0.2,0.5 l -6,9.9 c -0.1,0.1 -0.2,0.2 -0.4,0.2 -1.9,-0.3 -3,-0.2 -3.8,0.5 1.7,0.3 3.5,0.7 5.3,1.4 1.6,-1.8 3.4,-3.5 5.2,-5 0,0 0.1,0 0.1,-0.1 0.1,-0.1 0.2,-0.1 0.3,0 0.1,0 0.2,0.1 0.2,0.2 0,0 0,0.1 0,0.1 L 78,59.4 c 0,0.1 0,0.2 0,0.3 0,0.1 -0.1,0.2 -0.2,0.2 -0.1,0.1 -0.2,0.1 -0.3,0.2 0.7,2.1 5.6,16.9 7.1,20.9 0.5,1.2 1.5,3.5 1.5,4.8 0,1.3 -0.9,2 -2.8,2.1 -1,0.9 -1.1,1.3 -0.6,1.9 1,1.4 0.5,2 -0.7,2.9 1.1,0.9 0.9,2.5 0.3,2.5 -0.8,0 -1.1,0.3 -1.6,0.9 3.5,3.4 0.6,6.4 -4.1,7.4 -1.5,0.3 -3.2,0.5 -5,0.4 0,0 0,0 0,0.1 -0.6,2 -1,3.9 -1.1,5.6 3.1,0.9 6.8,2 7.8,2.8 0,0 0.1,0.1 0.1,0.1 0.1,0.1 0.1,0.2 0.1,0.3 0,0.1 -0.1,0.2 -0.2,0.2 0,0 -0.1,0 -0.1,0.1 -0.8,0.4 -1.7,0.8 -2.6,1.2 z M 42.9,100.7 c 0,0 0,0.1 0,0.1 0.2,0.9 0.3,1.8 0.3,2.8 2.2,-1.5 1.6,-4 1,-5.2 -0.6,0.4 -1.1,0.7 -1.7,1.1 0.1,0.4 0.2,0.8 0.4,1.2 z m -0.6,0.7 c -1.6,1 -2.3,2.1 -2.4,3.3 1,-0.1 1.9,-0.4 2.5,-0.7 0.1,-0.9 0,-1.8 -0.1,-2.6 z m -2.5,4 c 0,0.5 0.2,0.9 0.4,1.4 5,-0.1 8.7,-5 6,-9.9 -0.5,0.4 -1,0.8 -1.5,1.1 1,1.9 1.9,6.7 -4.9,7.4 z m 0.9,2.1 c 0.4,0.6 0.9,1.1 1.5,1.6 7.3,-2.1 8.8,-8.2 5.9,-13.7 -0.4,0.4 -0.8,0.7 -1.3,1.1 3.1,5.3 -0.9,10.6 -6.1,11 z m 2.2,2.1 c 0.7,0.4 1.5,0.8 2.3,1.1 9,-4.5 6.8,-13.8 4.8,-17 -0.4,0.4 -0.9,0.8 -1.3,1.2 3,5.8 1.6,12.3 -5.8,14.7 z m 28,-36.4 c 3.1,-1.2 7,-1.8 10,-0.9 -1.3,-4 -2.7,-8.1 -3.5,-10.5 0,4 -1.9,7.8 -5.8,9.4 -0.2,0.7 -0.4,1.4 -0.7,2 z m -1.1,0.6 c 0,0 0,-0.1 0.1,-0.1 0.5,-0.8 0.9,-1.7 1.1,-2.7 0,0 0,-0.1 0,-0.1 0.2,-0.8 0.2,-1.7 0.2,-2.6 0,0 0,-0.1 0,-0.1 0,-0.6 -0.1,-1.3 -0.3,-2 -0.5,0.5 -0.9,1 -1.3,1.6 0.2,2.3 -0.3,4.8 -2.8,7 0.1,0.7 0.1,1.4 0,2.1 1.3,-1 2.3,-2 3,-3.1 z M 51.4,95 c 0.2,-0.8 0.6,-1.4 1.2,-2 -0.3,-0.5 -0.4,-1.1 -0.5,-1.6 -0.5,0.6 -1,1.1 -1.6,1.7 0.3,0.6 0.6,1.2 0.9,1.9 z m 1.7,-2.4 c 0.4,-0.3 0.9,-0.5 1.4,-0.7 -0.3,-0.7 -0.5,-1.6 -0.6,-2.6 -0.4,0.5 -0.9,1 -1.3,1.5 0.1,0.6 0.3,1.2 0.5,1.8 z m -17,2.7 c 0,-0.8 0.3,-1.7 0.7,-2.7 -1.8,-2.6 -3.4,-6 -3.9,-11 0,0 0,-0.1 0,-0.1 0,-0.5 -0.1,-1 -0.1,-1.5 0,0 0,-0.1 0,-0.1 0,-0.2 0,-0.3 0,-0.5 -0.1,-1.6 0,-3.3 0.3,-4.9 0,0 0,-0.1 0,-0.1 0.1,-0.5 0.2,-1 0.3,-1.5 0,0 0,-0.1 0,-0.1 1.1,-4.6 3.4,-9 6.7,-12.6 0,0 0.1,-0.1 0.1,-0.1 1,-1 2.1,-2 3.2,-2.9 v 0 c 1.8,-1.4 3.8,-2.5 6,-3.3 0,0 0,0 0.1,0 2.7,-1 5.7,-1.6 8.9,-1.6 0.2,0 0.4,0 0.6,0 1.2,0 2.4,0.1 3.7,0.3 0.6,-0.7 1.2,-1.1 2.1,-1.2 -0.1,0 -0.1,0 -0.2,-0.1 0,0 0,0 0,0 -1.6,-0.4 -3.1,-0.7 -4.7,-0.8 v 0 C 51.7,50 43.7,53.6 38.3,59.6 v 0 c -1.1,1.2 -2.1,2.5 -3,3.9 0,0 0,0 0,0.1 -0.8,1.3 -1.5,2.7 -2.1,4.1 0,0 0,0 0,0 -0.6,1.4 -1.1,2.9 -1.4,4.4 -1.4,5.9 -0.9,12.4 2.3,19 v 0 c 0.3,1.4 1.1,2.8 2,4.2 z m 1.3,-3 c 0,0 0.1,0.1 0.1,0.1 0.3,0.4 0.5,0.7 0.8,1.1 1.4,-1.1 2.7,-2.2 4,-3.4 -0.6,-0.3 -1.2,-0.6 -1.7,-0.9 -1,1 -1.6,1.4 -3.3,1.4 -0.3,0 -0.4,-0.2 -0.3,-0.5 0.3,-0.9 0,-3.2 0,-4.4 -0.1,-0.2 -0.3,-0.5 -0.4,-0.7 -0.4,0.1 -1,0.1 -1.7,0.1 -0.4,0 -0.5,-0.3 -0.2,-0.6 1.1,-1 0.9,-2.4 1.2,-4.3 -0.6,0.3 -1.8,1.1 -2.2,1.4 0.4,4.9 2,8.2 3.7,10.7 z m 3.5,4.6 C 55.5,87.1 61.3,69.4 74.4,58.2 l -1.9,-0.4 c -0.4,-0.1 -0.4,-0.1 -0.3,-0.5 l 0.3,-2.7 C 60.3,66.9 53.6,87.1 40,95.7 c 0.3,0.4 0.6,0.8 0.9,1.2 z M 74.8,52.3 c -0.6,0.5 -1.1,1 -1.6,1.5 l -0.4,3.4 2.2,0.5 c 0.4,-0.3 0.8,-0.7 1.3,-1 l -0.3,-1 c -0.6,0.2 -1.3,-0.1 -1.6,-0.8 -0.2,-0.6 0.1,-1.3 0.8,-1.6 z m -31.7,38 c -1.4,1.3 -2.8,2.6 -4.4,3.8 l 0.1,0.1 c 0.2,0.3 0.5,0.6 0.7,0.9 7.2,-4.5 12.4,-12.3 17.6,-20.5 4.5,-7.2 9.3,-15.2 15.4,-21.2 0,0 0.1,-0.1 0.1,-0.1 0.6,-0.6 1.3,-1.2 1.9,-1.8 L 74,50 c -2.4,2 -4.5,4.2 -6.6,6.6 0,0 0,0.1 -0.1,0.1 -3.9,4.7 -7.2,10 -10.3,14.9 -1.7,2.6 -3.3,5.2 -5.1,7.8 0,0 0,0.1 -0.1,0.1 -0.7,1 -1.5,2 -2.2,3.1 0,0 0,0.1 -0.1,0.1 -0.5,0.7 -1.1,1.4 -1.7,2.1 0,0 0,0.1 -0.1,0.1 -0.8,1 -1.7,2 -2.6,3 0,0 0,0.1 -0.1,0.1 -0.4,0.7 -1.2,1.5 -1.9,2.3 z m -0.3,-0.7 c 0.5,-0.5 1.1,-1.1 1.6,-1.6 -3.3,-0.5 -5.2,-2.1 -5.9,-4.1 -0.5,0.4 -0.8,0.7 -1.2,0.9 0.1,0.2 0.2,0.4 0.3,0.6 0,0 0.1,0.1 0.1,0.2 1.3,2.1 2.8,2.8 5.1,4 z m 2.1,-2.3 c 0.5,-0.6 1.1,-1.2 1.6,-1.8 -6.1,1.7 -10,-7.9 0.5,-11.8 -0.8,-0.3 -1.5,-0.5 -2.2,-0.9 -6.8,3 -9.1,13.3 0.1,14.5 z m 2.6,-3 c 0.5,-0.7 1.1,-1.3 1.6,-2 0.2,-1.8 -0.2,-3.8 -2.5,-4.8 -0.6,0.3 -1.2,0.7 -1.7,1.2 3.3,0.5 3.2,4.7 0.2,4.7 -2.5,0 -2.4,-3.1 -1.3,-4.6 0,0 0,-0.1 0.1,-0.1 v 0 c 0.5,-0.7 1.3,-1.3 2.4,-1.9 0,0 0.1,0 0.1,-0.1 0.8,-0.4 1.8,-0.7 2.9,-1 0,0 0.1,0 0.1,0 0.7,-0.2 1.4,-0.3 2.3,-0.4 C 51.1,75 50.3,74.8 49.6,74.5 49.1,74.3 48.6,74.2 48,74 36.9,77.6 41.4,87.5 47.5,84.3 Z m 2.3,-3.1 c 0.5,-0.7 1,-1.4 1.5,-2.1 -0.1,-0.7 -0.9,-2 -1.8,-2.7 -0.7,0.2 -1.4,0.4 -2.1,0.7 1.8,1 2.4,2.6 2.4,4.1 z m 2,-2.8 c 0.5,-0.8 1,-1.5 1.5,-2.3 -0.1,-0.1 -0.3,-0.2 -0.4,-0.3 -0.7,0.1 -1.6,0.2 -2.6,0.4 0.7,0.7 1.2,1.5 1.5,2.2 z m 1.9,-2.8 c 0.5,-0.8 1,-1.6 1.6,-2.4 -2,-0.5 -5.5,-0.2 -7.8,-0.2 0.8,0.3 1.6,0.5 2.4,0.8 1.2,0.4 2.3,0.8 3.3,1.4 0,0 0.1,0 0.1,0.1 0.1,0.1 0.3,0.2 0.4,0.3 z m 2,-3.1 c 0.4,-0.6 0.7,-1.2 1.1,-1.7 -2.2,-0.7 -5.7,-0.5 -7.9,-0.5 -2.6,0 -5.4,0.1 -7.5,-0.5 1.1,1 2.5,1.8 4,2.4 1.1,0.2 3.8,0 4.7,0 2,0 4.2,0 5.6,0.3 z m 1.5,-2.3 c 0.3,-0.5 0.6,-1 0.9,-1.5 C 55.3,67.6 50.8,68 47.9,68 44.6,68 41.2,67.8 39,66 c 0.3,1.1 0.8,2 1.4,2.8 3.2,1.4 9.4,0.7 13.1,0.8 1.4,0.1 2.7,0.2 3.7,0.6 z m 1.3,-2.1 c 0.3,-0.5 0.6,-1 1,-1.5 -1.1,-0.4 -2.2,-0.6 -3.3,-0.8 0,0 -0.1,0 -0.1,0 -2.8,-0.4 -5.6,-0.3 -8.6,-0.3 -1.9,0 -3.6,-0.1 -5.2,-0.5 0,0 -0.1,0 -0.1,0 -1.3,-0.4 -2.4,-1.1 -3.3,-2.4 -0.1,0.1 -0.2,0.2 -0.3,0.4 0,0.6 0.1,1.1 0.2,1.7 1.8,2.4 5.3,2.7 9.2,2.7 3,-0.1 7.6,-0.5 10.5,0.7 z m 8.7,-12.2 c 0.3,-0.4 0.7,-0.8 1,-1.2 -1.9,-0.6 -3.7,-1.1 -5.5,-1.3 0,0 -0.1,0 -0.1,0 -0.8,-0.1 -1.6,-0.2 -2.4,-0.3 0.3,0.4 0.5,1.1 0.5,1.9 0.4,0.4 0.7,0.9 0.7,1.4 0.5,-0.3 1.2,-0.4 2,-0.2 0.6,-1.4 2.6,-1.7 3.8,-0.3 z m -39.6,42.5 6.5,-4.9 c -0.3,-0.6 -0.6,-1.1 -0.9,-1.7 l -5.5,3.3 c -0.4,0.2 -0.8,-0.4 -0.4,-0.6 l 5.5,-3.4 c -0.2,-0.5 -0.4,-0.9 -0.6,-1.4 l -7.5,3.5 c 0.9,1.8 1.9,3.5 2.9,5.2 z M 34.5,94.1 28,99 c 1.1,1.6 2.3,3.2 3.7,4.8 l 5.1,-6.1 c -0.3,-0.5 -0.7,-0.9 -1,-1.4 l -4.9,4.8 c -0.3,0.3 -0.8,-0.2 -0.5,-0.5 l 5,-4.9 c -0.3,-0.5 -0.6,-1.1 -0.9,-1.6 z m -9.9,-1.5 7.5,-3.5 c -0.2,-0.5 -0.4,-1 -0.5,-1.5 l -6.1,1.8 C 25,89.5 24.8,88.8 25.3,88.7 l 6.1,-1.8 c -0.2,-0.7 -0.4,-1.3 -0.5,-2 l -8.1,1.7 c 0.3,2.1 1,4 1.8,6 z M 22.5,86 30.6,84.3 c -0.1,-0.6 -0.2,-1.2 -0.3,-1.7 l -6.5,0.6 c -0.5,0 -0.5,-0.7 -0.1,-0.7 l 6.5,-0.6 C 30.1,81.3 30.1,80.6 30,80 l -8.3,-0.2 c 0.1,2 0.4,4.1 0.8,6.2 z m -0.8,-7 8.3,0.2 c 0,-0.6 0,-1.1 0,-1.7 L 23.6,76.8 C 23.1,76.7 23.2,76 23.7,76.1 l 6.4,0.7 c 0,-0.7 0.1,-1.4 0.2,-2.1 L 22.2,73 c -0.3,2 -0.5,4 -0.5,6 z m 0.6,-6.7 8.1,1.7 c 0.1,-0.6 0.2,-1.1 0.3,-1.6 l -6.2,-2 C 24,70.3 24.3,69.6 24.7,69.7 l 6.1,1.9 c 0.1,-0.5 0.3,-1.1 0.4,-1.6 l -7.5,-3.7 c -0.5,1.9 -1.1,3.9 -1.4,6 z m 1.8,-6.7 7.4,3.7 c 0.2,-0.5 0.4,-1.1 0.6,-1.6 l -5.7,-3.5 c -0.4,-0.2 0,-0.9 0.4,-0.6 l 5.6,3.4 c 0.2,-0.6 0.5,-1.1 0.8,-1.7 l -6.7,-5.1 c -0.9,1.8 -1.7,3.6 -2.4,5.4 z m 2.7,-5.9 6.7,5.1 c 0.2,-0.4 0.5,-0.9 0.8,-1.3 l -4.9,-4.7 c -0.3,-0.3 0.2,-0.8 0.5,-0.5 l 4.8,4.6 c 0.4,-0.6 0.7,-1.1 1.1,-1.6 l -5.6,-6.5 c -1.2,1.5 -2.4,3.1 -3.4,4.9 z m 3.8,-5.5 5.6,6.5 c 0.4,-0.4 0.7,-0.9 1.1,-1.3 l -4.2,-5.7 c -0.3,-0.4 0.3,-0.8 0.6,-0.4 l 4.1,5.6 c 0.4,-0.4 0.8,-0.9 1.3,-1.3 L 34.7,50 c -1.5,1.2 -2.8,2.6 -4.1,4.2 z m 4.6,-4.8 4.4,7.6 c 0.4,-0.3 0.8,-0.7 1.2,-1 l -2.9,-6.7 c -0.2,-0.4 0.5,-0.7 0.7,-0.3 l 2.8,6.5 c 0.5,-0.4 1,-0.8 1.6,-1.1 l -2.9,-8.7 c -1.7,1.2 -3.4,2.4 -4.9,3.7 z m 5.5,-4 2.9,8.7 c 0.5,-0.3 0.9,-0.6 1.4,-0.8 L 43.3,46 c -0.1,-0.5 0.6,-0.6 0.7,-0.2 l 1.7,7 c 0.5,-0.3 1,-0.5 1.5,-0.8 l -1.3,-9.4 c -1.8,0.9 -3.5,1.8 -5.2,2.8 z m 5.9,-3 1.3,9.4 c 0.5,-0.2 1.1,-0.4 1.7,-0.6 l -0.3,-7.8 c 0,-0.5 0.7,-0.5 0.7,0 l 0.2,7.6 c 0.5,-0.2 1.1,-0.3 1.7,-0.5 l 0.7,-9.8 c -2.1,0.4 -4.1,1 -6,1.7 z m 6.7,-1.8 -0.7,9.8 c 0.6,-0.1 1.3,-0.3 1.9,-0.3 l 1.2,-7.7 c 0.1,-0.5 0.8,-0.4 0.7,0.1 L 55.3,50 c 0.5,-0.1 1,-0.1 1.5,-0.1 l 2.5,-9.8 c -2,-0.1 -4,0.1 -6,0.5 z m 6.8,-0.6 -2.5,9.8 c 0.6,0 1.3,0 1.9,0 l 2.4,-7.7 c 0.1,-0.5 0.8,-0.2 0.7,0.2 l -2.4,7.5 c 0.6,0.1 1.2,0.1 1.8,0.2 l 4.1,-9.6 c -2,-0.3 -4,-0.4 -6,-0.4 z m 6.7,0.6 -4.1,9.6 c 0.5,0.1 1.1,0.2 1.6,0.4 l 4,-7.8 c 0.2,-0.4 0.9,-0.1 0.6,0.3 l -4,7.6 c 0.7,0.2 1.4,0.4 2.1,0.7 l 5.6,-9.3 C 70.7,41.4 68.8,40.9 66.8,40.6 Z M 53.9,62.1 c 0,0.1 0,0.1 -0.1,0.2 0,0.1 -0.1,0.1 -0.2,0.1 0,0 0,0 -0.1,0 -0.6,0.1 -1.2,0.1 -1.8,0 -0.1,0.1 -0.1,0.1 -0.2,0.2 0.1,0.7 0.4,1.5 1.2,2.3 0.5,0 1.1,0 1.6,0.1 l 1.6,-6.5 c -1.8,-0.5 -2.2,-3.6 0.1,-4 0,-0.5 0.2,-1 0.5,-1.3 -1.2,0.1 -2.4,0.2 -3.6,0.5 l 0.3,3.7 c 0,0 0,0.1 0,0.1 v 0.4 c 0,0.5 -0.7,0.5 -0.7,0.1 v -0.3 l -1.5,-1 c -0.4,0.3 -0.6,0.8 -0.6,1.3 0,1 0.8,1.8 1.8,1.8 0.2,0 0.3,0 0.5,-0.1 v -0.1 c 0,-0.5 0.7,-0.5 0.7,-0.1 v 0.4 c 0,0 0,0.1 0,0.1 l 0.5,2.1 c 0,-0.1 0,0 0,0 z m -2.6,-6.6 0.2,0.1 c 0,0 0,0 0.1,0 l 1.2,0.8 -0.3,-2.9 c -0.9,0.2 -1.8,0.5 -2.7,0.8 -1.9,2 -1.6,4.2 -0.5,5.6 0,0 0.1,0.1 0.1,0.1 0.9,1.1 2.4,1.7 3.8,1.5 L 53,60.2 c -0.2,0 -0.4,0.1 -0.6,0.1 -1.4,0 -2.5,-1.1 -2.5,-2.5 0,-0.7 0.3,-1.3 0.8,-1.8 -0.1,-0.3 0.2,-0.7 0.6,-0.5 z m -0.4,6.6 c -0.8,-0.3 -1.5,-0.8 -2,-1.3 -2.5,0.6 -4.7,-1.2 -5.5,-2.8 -0.9,0.7 -1.7,1.4 -2.4,2.1 l 1.5,0.4 c 0,0 0,0 0.1,0 l 0.4,0.1 c 0.1,0 0.1,0 0.2,0.1 0.1,0 0.1,0.1 0.1,0.1 1.7,2.1 6,2.1 7.6,1.3 z m -2.5,-2 c -1,-1.4 -1.2,-3.2 0,-5.1 -1.6,0.7 -3.1,1.6 -4.4,2.6 0.6,1.3 2.4,2.8 4.4,2.5 z m -5.7,1.2 v 0 c -0.3,0.7 -0.3,2.2 -0.1,3 1.4,0.4 3,0.5 4.8,0.5 1.5,0 3,0 4.4,0 -0.5,-0.6 -0.8,-1.3 -0.9,-1.9 -2.1,0.8 -6.3,0.5 -8.2,-1.6 z m 1.2,11.1 c -0.5,-0.2 -0.9,-0.5 -1.3,-0.8 -0.5,0.4 -1,0.8 -1.5,1.1 0,0 0,0 -0.1,0 -0.9,0.8 -1.7,1.5 -2.3,2.2 0,0 0,0 -0.1,0.1 -0.3,0.3 -0.5,0.6 -0.7,1 0,0 0,0.1 -0.1,0.1 -0.8,1.3 -1.2,2.4 -1.4,3.5 -0.3,1.5 -0.1,3.5 -1,4.8 1.4,-0.1 1.8,-0.5 2.6,-1.3 -0.6,-3.8 2.1,-8.7 5.9,-10.7 z m 0.5,6.9 c -0.1,0.1 -0.2,0.3 -0.3,0.4 -0.8,1.6 0.1,2.9 1,2.9 2.3,0 2.1,-3.1 -0.7,-3.3 z m -4.1,-6.8 c -1.2,-1 -2.6,-2 -3.3,-3.5 -0.1,0.8 -0.1,1.6 0.1,2.3 v 0 c 0.3,1.2 0.9,2.2 1.4,2.9 0.5,-0.5 1.1,-1.1 1.8,-1.7 z m -2.6,14.4 c 0.1,1 0.2,2 0,3 1.1,-0.1 1.6,-0.4 2.2,-1 -0.8,-0.6 -1.5,-1.2 -2.2,-2 z M 37.3,73.6 36,74.3 36.7,75.8 C 37,75.7 37.2,75.6 37.5,75.5 37.7,75.3 37.9,75 38.1,74.7 37.8,74.4 37.6,74 37.3,73.6 Z M 33.4,80 c 0,0.3 0,0.6 0.1,0.9 0.7,-0.5 1.8,-1.2 2.4,-1.4 0.2,-0.9 0.5,-1.8 1,-2.8 -0.1,0 -0.1,0.1 -0.2,0.1 0,0 0,0 0,0 -1.6,0.8 -3,2.6 -3.3,3.2 z m 0.1,-4.6 c -0.1,1.1 -0.2,2.2 -0.2,3.3 0.3,-0.5 0.8,-1 1.3,-1.5 z m 0.4,-2.3 c -0.1,0.4 -0.2,0.9 -0.2,1.3 l 1.5,2.5 c 0.3,-0.2 0.5,-0.4 0.8,-0.6 -1.2,-2.6 -1.5,-2 1,-3.2 -0.2,-0.4 -0.3,-0.8 -0.5,-1.2 -0.6,0.1 -1.7,0.5 -2.6,1.2 z m 4,-9.2 c -1.7,2.5 -3,5.3 -3.7,8.2 0.8,-0.5 1.6,-0.8 2.2,-1 -0.2,-1.1 -0.2,-2.2 0.3,-3.5 0.2,-0.4 0.6,-0.4 0.7,0.1 0.3,1.8 2.1,3.2 3.5,4.3 0.3,-0.3 0.7,-0.6 1.1,-0.8 -2.1,-1.5 -3.7,-3.7 -4.1,-7.3 z m 2.5,-3.2 c -0.4,0.4 -0.8,0.8 -1.1,1.3 0.7,1 1.6,1.6 2.6,2.1 C 41.8,63.2 41.8,62 42,61.2 Z m 20.1,-2.3 c -0.3,0.2 -0.7,0.3 -1.2,0.3 -0.1,1 -0.3,2.1 -0.1,3.1 l 1.9,-2 c -0.4,-0.5 -0.6,-1 -0.6,-1.4 z m -2.2,2.1 c -0.5,-0.1 -1.1,-0.3 -1.3,-0.9 -0.1,-0.2 0.7,-0.1 0.8,-0.1 0.2,0 0.4,0 0.6,-0.1 0,-0.4 0.1,-0.8 0.2,-1.2 0,0 0,0 0,0 0,-0.1 0,-0.3 0.1,-0.4 0.1,-0.5 0.8,-0.4 0.7,0.1 2.1,-0.2 1.7,-3.2 -0.5,-2.7 -0.5,0.1 -0.6,-0.6 -0.1,-0.7 0.5,-0.1 0.9,-0.1 1.3,0 -0.2,-3 -4.9,-1.2 -2.2,1.1 0.4,0.3 -0.1,0.9 -0.5,0.5 -0.5,-0.4 -0.8,-0.8 -0.9,-1.2 -1.6,0.3 -1.2,2.3 -0.1,2.6 v -0.1 c 0.1,-0.5 0.8,-0.3 0.7,0.2 L 57,58 c 0,0 0,0 0,0 l -1.8,7 c 0.3,0 0.6,0.1 0.9,0.1 l 2.5,-2.7 c -0.2,-0.6 -0.3,-1.2 -0.3,-1.9 z m 3.6,2.5 c -0.4,-0.5 -0.5,-1.3 -0.4,-2 0.1,-0.3 0.4,0.2 0.5,0.3 0.2,0.2 0.5,0.3 0.8,0.5 0.6,-0.9 1.2,-1.7 1.8,-2.6 0.7,-0.9 1.4,-1.9 2.2,-2.8 -1.2,-1.5 -3.3,-0.6 -2.7,1.7 0.1,0.5 -0.6,0.6 -0.7,0.2 -0.1,-0.5 -0.2,-1 -0.1,-1.4 -1.6,-0.5 -2.7,0.9 -1.7,2.3 0.3,-0.3 0.8,0.2 0.5,0.5 l -2.8,3 c 0,0 -0.1,0.1 -0.1,0.1 L 57,65.2 c 1,0.2 2,0.4 3,0.8 0.5,-1 1.2,-2 1.9,-3 z m -3.2,20 c 4,-1.6 5.2,-4.8 5,-7.3 -0.9,1.3 -1.8,2.6 -2.6,3.9 -0.8,1.1 -1.6,2.2 -2.4,3.4 z m 7.9,-9.1 c 1.7,-1.7 2.2,-3.6 2.2,-5.3 -0.9,1.2 -1.8,2.4 -2.7,3.6 0.2,0.6 0.4,1.1 0.5,1.7 z m 5.2,-6.4 c 1.8,-1.5 2.5,-3 2.5,-4.9 -1,0.9 -1.9,1.8 -2.8,2.8 0.1,0.8 0.2,1.5 0.3,2.1 z m -0.1,2.9 c 3.7,-1.7 5.2,-5.7 4.9,-9.8 -0.6,0.4 -1.2,0.9 -1.7,1.4 0.2,2.5 -0.7,4.5 -3.1,6.3 0,0.8 0,1.5 -0.1,2.1 z M 57.3,85.8 c 0,0 0,0 0,0 4.2,-0.4 7.9,-3.7 8.7,-8.2 0,0 0,-0.1 0,-0.1 0.1,-0.9 0.2,-1.8 0.1,-2.8 0,0 0,-0.1 0,-0.1 -0.1,-0.6 -0.2,-1.1 -0.4,-1.7 -0.4,0.6 -0.9,1.2 -1.3,1.9 0.6,3.2 -0.8,7.6 -6.3,9.2 -0.4,0.6 -0.9,1.2 -1.4,1.8 0.2,0 0.4,0 0.6,0 z M 41.9,98.5 c 0,0 0,0 0,0 0.1,0.2 0.2,0.3 0.2,0.4 1.4,-0.8 2.7,-1.7 4,-2.8 0,0 0,0 0.1,0 0.6,-0.5 1.2,-1 1.8,-1.5 0,0 0.1,-0.1 0.1,-0.1 0.6,-0.5 1.1,-1.1 1.7,-1.6 0,0 0,-0.1 0.1,-0.1 0.7,-0.7 1.5,-1.5 2.2,-2.3 0,0 0.1,-0.1 0.1,-0.1 0.6,-0.7 1.3,-1.5 1.9,-2.2 0,-0.1 0.1,-0.1 0.1,-0.1 0.5,-0.7 1.1,-1.4 1.6,-2.1 0,-0.1 0,0 0.1,-0.1 0.6,-0.8 1.2,-1.6 1.7,-2.4 0,0 0,-0.1 0.1,-0.1 2.1,-2.9 4.1,-5.9 6.1,-8.9 0,0 0,-0.1 0.1,-0.1 0.6,-0.8 1.1,-1.7 1.7,-2.5 0,0 0,-0.1 0.1,-0.1 1,-1.4 2,-2.7 3,-4 0.1,-0.1 0.2,-0.2 0.3,-0.4 0,0 0,-0.1 0.1,-0.1 0.6,-0.7 1.2,-1.5 1.8,-2.2 0,0 0,-0.1 0.1,-0.1 1.1,-1.2 2.3,-2.4 3.4,-3.5 0,0 0.1,-0.1 0.1,-0.1 0.8,-0.7 1.5,-1.3 2.3,-1.8 0,0 0.1,-0.1 0.1,-0.1 L 77,59.4 c 0,0 0,0 0.1,0 0.1,-0.1 0.2,-0.2 0.3,-0.2 l -0.7,-2 c -0.4,0.3 -0.8,0.6 -1.1,0.9 0,0 0,0 -0.1,0.1 -13.6,11.3 -19.3,29.4 -34.2,39.3 0.2,0.3 0.4,0.6 0.6,1 z m 12.8,1.3 c 0,0 0.1,0 0,0 0.4,0.1 0.7,0.1 1,0.1 0.9,0 1.7,-0.3 2.4,-0.8 0,0 0,0 0,0 0.8,-0.7 1.3,-1.7 1.3,-2.8 0,-0.6 -0.1,-1.1 -0.3,-1.5 0,0 0,-0.1 0,-0.1 -0.6,-1.2 -1.9,-2.1 -3.3,-2.1 -0.2,0 -0.4,0 -0.5,0 h -0.1 c -0.7,0.1 -1.3,0.4 -1.8,0.8 h -0.1 c -0.8,0.7 -1.3,1.7 -1.3,2.8 0,1.7 1.1,3.2 2.7,3.6 z m -9.6,13.5 c 1.1,-0.4 2.1,-0.9 2.9,-1.4 0,0 0.1,-0.1 0.1,-0.1 0.8,-0.5 1.5,-1.1 2.2,-1.7 0,0 0,-0.1 0.1,-0.1 3.2,-3.2 4.1,-7.3 4,-9.6 -0.7,-0.2 -1.4,-0.7 -1.9,-1.2 0.4,4.1 -0.9,9.1 -7,12.1 -0.1,0.1 -0.1,0.1 -0.2,0.1 0,0 -0.1,0 -0.2,0 -1,-0.3 -2.1,-0.9 -3,-1.5 -0.1,-0.1 -0.1,-0.1 -0.2,-0.2 -0.8,-0.6 -1.5,-1.4 -2,-2.2 -0.1,-0.1 -0.1,-0.1 -0.1,-0.2 -1.2,-2.1 -1,-4.5 2.4,-6.5 -0.2,-0.5 -0.4,-1 -0.6,-1.5 -7,4.6 -4.3,10.4 3.5,14 z m 3.2,-0.8 c -0.7,0.4 -1.5,0.8 -2.3,1.2 4.1,1.7 9.4,2.8 15,2.7 -3.3,-1.3 -9.5,-3.2 -12.7,-3.9 z m 2.4,-1.8 c -0.5,0.4 -1,0.9 -1.5,1.2 4,0.9 11.1,3.2 13.6,4.3 1.5,-0.1 3.1,-0.3 4.6,-0.5 -4.3,-1.3 -12.9,-4 -16.7,-5 z M 55,100.6 c 0,2.4 -0.8,6.4 -3.8,9.6 4.4,1.1 14,4.1 17.5,5.4 0.5,-0.1 1,-0.2 1.4,-0.3 -0.6,-2.8 -0.6,-6.9 0.8,-11.4 -4,-0.3 -8.5,-1.5 -12.7,-4.1 -0.7,0.5 -1.6,0.9 -2.6,0.9 -0.1,-0.1 -0.4,-0.1 -0.6,-0.1 z m 0,-9.7 c 0.1,0.3 0.2,0.6 0.3,0.9 0.1,0 0.3,0 0.4,0 0.7,0 1.4,0.2 2,0.5 0.4,-2 -1.5,-2.8 -2.7,-1.4 z m 2.6,-3.6 c 3.2,0.8 4.3,4.8 2.3,7.2 0.2,0.5 0.3,1.1 0.3,1.7 0,1.2 -0.5,2.3 -1.2,3.1 6.2,3.8 13.2,4.5 17.8,3.5 4.8,-1 6.5,-3.6 3.5,-6.4 -0.5,-0.5 0.9,-1.8 2,-1.9 0.1,-0.7 -0.2,-1.2 -0.7,-1.5 -1.5,-0.1 -3.9,0.6 -5.5,1 -0.1,0.3 -0.6,0.4 -0.7,0 -0.2,-0.5 0.3,-1.3 0.4,-1.5 0.2,-0.5 0.8,-0.2 0.6,0.3 -0.1,0.1 -0.2,0.3 -0.2,0.5 1.6,-0.4 3.8,-1.1 5.4,-1 0.4,-0.3 1.4,-1 1.2,-1.6 -0.1,-0.1 -0.2,-0.3 -0.4,-0.6 -0.8,-1 -0.4,-1.7 0.3,-2.5 -1.2,-0.2 -2.8,0 -3.6,0.9 -0.5,0.5 -1.3,-0.9 -1.4,-1.1 -0.3,-0.8 -0.3,-1.8 0.9,-2.9 0.3,-0.3 0.8,0.2 0.5,0.5 -0.9,0.9 -1.2,1.8 -0.3,2.7 v 0 c 1.3,-1 3.1,-1.2 4.6,-0.8 v 0 0 c 2.7,-0.2 2.5,-1.3 1.8,-3.2 -0.3,-0.8 -0.7,-1.7 -1,-2.7 -0.6,-1.5 -1.7,-4.6 -2.8,-8 -3.1,-1.2 -7.5,-0.5 -10.8,1 -0.8,1.3 -2,2.5 -3.7,3.7 -0.8,4.6 -4.6,8.1 -9,8.6 z m -0.8,-0.1 0.1,-0.7 c -0.3,0 -0.5,0 -0.8,0 -0.5,0.7 -1,1.3 -1.5,1.9 0,0.6 0.1,1.1 0.2,1.6 1.5,-1.3 4.4,-0.4 3.5,2.6 0.5,0.3 0.9,0.8 1.2,1.2 1.6,-2.2 0.2,-5.8 -2.9,-5.9 -0.5,0 -0.5,-0.7 0,-0.7 0.1,0 0.2,0 0.2,0 z M 69.2,61.6 c 0,0.4 -0.3,0.7 -0.7,0.7 -0.4,0 -0.7,-0.3 -0.7,-0.7 0,-0.4 0.3,-0.7 0.7,-0.7 0.4,0.1 0.7,0.4 0.7,0.7 z m 1.9,-2.2 c 0,0.4 -0.3,0.7 -0.7,0.7 -0.4,0 -0.7,-0.3 -0.7,-0.7 0,-0.4 0.3,-0.7 0.7,-0.7 0.4,0 0.7,0.3 0.7,0.7 z M 67.4,64 c 0,0.3 -0.3,0.6 -0.6,0.6 -0.3,0 -0.6,-0.3 -0.6,-0.6 0,-0.3 0.3,-0.6 0.6,-0.6 0.3,0 0.6,0.3 0.6,0.6 z M 47,57.6 c 0,0.4 -0.3,0.7 -0.7,0.7 -0.4,0 -0.7,-0.3 -0.7,-0.7 0,-0.4 0.3,-0.7 0.7,-0.7 0.4,0 0.7,0.3 0.7,0.7 z m 8.7,39.9 c 0.7,0 1.3,-0.6 1.3,-1.3 0,-0.7 -0.6,-1.3 -1.3,-1.3 -0.7,0 -1.3,0.6 -1.3,1.3 0,0.7 0.6,1.3 1.3,1.3 z m 0,0.7 c -1.1,0 -2,-0.9 -2,-2 0,-1.1 0.9,-2 2,-2 1.1,0 2,0.9 2,2 0,1.1 -0.9,2 -2,2 z M 83.2,87.1 c 0,0 0,0 0,0 z m -10.5,-8 c -0.2,-0.6 -0.3,-1.3 -0.2,-2.1 -1.1,0.3 -2.1,0.8 -3,1.5 0.3,0.1 0.8,0.2 1.4,0.4 0.5,0.1 1.1,0.2 1.8,0.2 z m 0.5,-2.3 c -0.1,1 0,1.7 0.2,2.3 0.5,0 0.9,0 1.4,-0.1 -0.2,-0.3 -0.4,-0.8 -0.4,-1.2 0,-0.5 0,-0.9 0.2,-1.3 -0.4,0.1 -0.9,0.2 -1.4,0.3 z m 3,-1.1 c 0.5,0 1,-0.1 1.3,0 0.2,0 0.3,0.2 0.3,0.4 0,0.4 -0.6,0.7 -1,0.8 0.1,0.2 0.1,0.4 0.1,0.7 0.1,1 -0.3,1.9 -1,2.1 0,0 0,0 -0.1,0 -0.8,0.1 -1.7,0.2 -2.7,0.2 -0.1,0 -0.1,0 -0.2,0 -1.5,0 -3,-0.3 -4.2,-0.8 0,0 0,0 0,0 -0.3,0.4 -0.9,-0.1 -0.5,-0.5 0,0 0.1,-0.1 0.2,-0.2 0,0 0,0 0.1,-0.1 0.9,-0.7 3.3,-2.5 7.7,-2.6 z"
   id="path8" />
	<path
   class="st1"
   d="M 101.7,48.7 V 50 h 4 v 12.4 h 1.5 V 50 h 4 v -1.3 z m 12.6,0 v 13.7 h 7.4 v -1.3 h -5.9 V 56 h 5.4 v -1.3 h -5.4 V 50 h 5.9 v -1.3 z m 17.6,0.9 c 1.3,0 2.5,0.3 3.5,1 l 0.6,-1.1 c -1.3,-0.7 -2.6,-1 -4.1,-1 -4,0 -7.2,2.9 -7.2,7.1 0,4.5 3.2,7.1 7.2,7.1 1.4,0 2.9,-0.5 4.1,-1.2 l -0.5,-1 c -1.1,0.6 -2.3,1 -3.5,1 -3.3,0 -5.7,-2.6 -5.7,-5.9 -0.1,-3.4 2.2,-6 5.6,-6 z m 7.6,-0.9 v 13.7 h 1.5 v -6.6 h 7.5 v 6.6 H 150 V 48.7 h -1.5 v 5.9 H 141 v -5.9 z m 17,-0.3 -1.6,0.4 v 13.6 h 1.5 V 50.6 l 8,12.1 1.6,-0.4 V 48.7 h -1.4 v 11.7 z m 15,0.3 V 62.4 H 173 V 48.7 Z m 9.4,12.9 c -1.1,0 -2.2,-0.5 -2.9,-1 l -0.6,1 c 1.1,0.7 2.2,1 3.6,1 3,0 4.4,-1.9 4.4,-3.9 0,-2.1 -1.5,-3 -3,-3.7 l -1.2,-0.6 c -1,-0.5 -2.1,-1.2 -2.1,-2.4 0,-1.8 1.5,-2.6 2.7,-2.6 1.3,0 2.1,0.4 2.9,1 l 0.5,-1 c -1.1,-0.6 -2.2,-1 -3.5,-1 -2.4,0 -4.1,1.5 -4.1,3.5 0,2.9 2.1,3.4 4.1,4.4 1.1,0.5 2,1.2 2,2.6 0.1,1.6 -1.2,2.7 -2.8,2.7 z m 15,-12 c 1.3,0 2.5,0.3 3.5,1 l 0.6,-1.1 c -1.3,-0.7 -2.6,-1 -4.1,-1 -4,0 -7.2,2.9 -7.2,7.1 0,4.5 3.2,7.1 7.2,7.1 1.4,0 2.9,-0.5 4.1,-1.2 l -0.5,-1 c -1.1,0.6 -2.3,1 -3.5,1 -3.3,0 -5.7,-2.6 -5.7,-5.9 -0.1,-3.4 2.3,-6 5.6,-6 z m 8,-0.9 v 13.7 h 1.5 v -6.6 h 7.5 v 6.6 h 1.5 V 48.7 h -1.5 v 5.9 h -7.5 v -5.9 z m 15.4,0 v 13.7 h 7.5 v -1.3 h -5.9 V 56 h 5.4 v -1.3 h -5.4 V 50 h 5.9 V 48.7 Z M 113.9,80.3 v -9 h -1.5 v 8.8 c 0,3.1 -1.5,4 -3.8,4 -2.6,0 -3.7,-1.4 -3.7,-4 v -8.8 h -1.6 v 9.1 c 0,3.1 1.8,4.8 5.2,4.8 2.6,0.1 5.4,-0.7 5.4,-4.9 z m 5.9,-9.2 -1.6,0.4 v 13.6 h 1.5 V 73.3 l 8,12.1 1.6,-0.4 V 71.4 h -1.4 v 11.7 z m 14.4,0.3 v 13.7 h 1.5 V 71.4 Z m 5.9,-0.2 -1.5,0.5 5.2,13.4 h 1.5 l 5.3,-13.4 -1.5,-0.5 -4.5,12.3 z m 13.5,0.2 v 13.7 h 7.4 v -1.3 h -5.9 v -5.2 h 5.3 v -1.3 h -5.3 v -4.7 h 5.9 v -1.3 h -7.4 z M 168,78 h -1.8 v -5.5 h 2.2 c 2.4,0 3.1,1.2 3.1,2.7 0,2.3 -1.7,2.8 -3.5,2.8 z m 0.8,-6.6 h -4.1 v 13.7 h 1.5 v -5.9 h 1.3 c 1,0 1.5,0.4 2.1,1.1 l 0.6,0.8 3.2,4.4 1.3,-0.8 L 172,81 c -0.5,-0.7 -1.3,-1.9 -2.1,-2.2 v -0.3 c 1.9,-0.3 3,-1.3 3,-3.6 0,-2.1 -1.5,-3.5 -4.1,-3.5 z m 11.4,12.9 c -1.1,0 -2.2,-0.5 -2.9,-1 l -0.6,1 c 1.1,0.7 2.2,1 3.6,1 3,0 4.4,-1.9 4.4,-3.9 0,-2.1 -1.5,-3 -3,-3.7 l -1.2,-0.6 c -1,-0.5 -2.1,-1.2 -2.1,-2.4 0,-1.8 1.5,-2.6 2.7,-2.6 1.3,0 2.1,0.5 2.9,1 l 0.5,-1 c -1.1,-0.6 -2.2,-1 -3.5,-1 -2.4,0 -4.1,1.5 -4.1,3.5 0,2.9 2.1,3.4 4.1,4.4 1.1,0.5 2,1.2 2,2.6 0.1,1.7 -1.1,2.7 -2.8,2.7 z m 8.6,-12.9 v 13.7 h 1.5 V 71.4 Z m 4.5,0 v 1.3 h 4 v 12.4 h 1.5 V 72.6 h 4 v -1.3 h -9.5 z m 16.5,1.3 2.5,6.8 h -5.1 z M 216,84.9 210.6,71.4 H 209 l -5.6,13.5 1.5,0.5 1.8,-4.8 h 6 l 1.8,4.8 z m -2.3,-14.4 h -1.4 v 1.8 h 1.4 z m -6.4,1.8 v -1.8 h -1.4 v 1.8 z m 10.1,-0.9 v 1.3 h 4 v 12.4 h 1.5 V 72.7 h 4 v -1.3 z m -110.6,35.1 h -2 V 95.2 h 2.3 c 3.8,0 6.3,1.9 6.3,5.6 0.1,3.6 -2.5,5.7 -6.6,5.7 z M 107.5,94 h -4.2 v 13.7 h 3.7 c 4.7,0 7.9,-2.4 7.9,-7 0,-3.4 -1.9,-6.7 -7.4,-6.7 z m 15.9,1.4 2.5,6.8 h -5.1 z m 6.2,12.1 -5.4,-13.5 h -1.6 l -5.6,13.5 1.5,0.5 1.8,-4.8 h 6 l 1.8,4.8 z m 7,-6.8 h -1.8 v -5.5 h 2.2 c 2.4,0 3.1,1.2 3.1,2.7 0,2.2 -1.7,2.8 -3.5,2.8 z m 0.8,-6.7 h -4.1 v 13.7 h 1.5 v -5.9 h 1.3 c 1,0 1.5,0.4 2.1,1.1 l 0.6,0.8 3.2,4.4 1.3,-0.8 -2.7,-3.6 c -0.5,-0.7 -1.3,-1.9 -2.1,-2.1 v -0.3 c 1.9,-0.3 3,-1.3 3,-3.6 0,-2.2 -1.5,-3.7 -4.1,-3.7 z m 14.4,0 h -1.7 l -3.8,13.5 1.5,0.4 3.2,-11.9 3.5,11.6 h 1.7 l 3.5,-11.7 3.2,11.9 1.5,-0.4 -3.9,-13.4 h -1.7 l -3.5,11.9 z m 19.1,12.9 c -1.1,0 -2.2,-0.5 -2.9,-1 l -0.6,1 c 1.1,0.7 2.2,1 3.6,1 3,0 4.4,-1.9 4.4,-3.9 0,-2.1 -1.5,-3 -3,-3.7 l -1.2,-0.6 c -1,-0.5 -2.1,-1.2 -2.1,-2.4 0,-1.8 1.5,-2.6 2.7,-2.6 1.3,0 2.1,0.4 2.9,1 l 0.5,-1 c -1.1,-0.6 -2.2,-1 -3.5,-1 -2.4,0 -4.1,1.5 -4.1,3.5 0,2.9 2.1,3.4 4.1,4.4 1.1,0.5 2,1.2 2,2.6 0.1,1.7 -1.1,2.7 -2.8,2.7 z m 7,-12.9 v 1.3 h 4 v 12.4 h 1.5 V 95.3 h 4 V 94 Z m 16.7,1.4 2.5,6.8 H 192 Z m 6.2,12.2 -5.4,-13.6 h -1.6 l -5.6,13.5 1.5,0.5 1.8,-4.8 h 6 l 1.8,4.8 z m 6.7,-1.1 h -2 V 95.2 h 2.3 c 3.8,0 6.3,1.9 6.3,5.6 0,3.6 -2.6,5.7 -6.6,5.7 z M 208.1,94 h -4.2 v 13.7 h 3.7 c 4.7,0 7.9,-2.4 7.9,-7 0,-3.4 -1.9,-6.7 -7.4,-6.7 z m 9.3,0 v 1.3 h 4 v 12.4 h 1.5 V 95.3 h 4 V 94 Z"
   id="path10" />
</g>
</svg>
